<svg width="241" height="31" viewBox="0 0 241 31" fill="none" xmlns="http://www.w3.org/2000/svg">
    <path d="M50.0172 5.74771C54.9572 5.74771 58.5151 9.51963 58.5151 14.3692C58.5151 19.2188 54.9572 22.9908 50.0172 22.9908C45.0772 22.9908 41.5487 19.2188 41.5487 14.3692C41.5487 9.51963 45.0772 5.74771 50.0172 5.74771ZM50.0172 19.7876C53.1047 19.7876 55.2806 17.4526 55.2806 14.3992C55.2806 11.3457 53.1047 9.01072 50.0172 9.01072C46.9297 9.01072 44.7538 11.3457 44.7538 14.3992C44.7538 17.4526 46.9591 19.7876 50.0172 19.7876Z" fill="white"/>
    <path d="M69.9241 20.3863H63.8374L63.0728 22.7812H59.8677L65.2782 6.01709H68.6009L73.9819 22.7812H70.718L69.9241 20.3863ZM68.9243 17.2131L66.8954 10.8667L64.8665 17.2131H68.9243Z" fill="white"/>
    <path d="M81.8918 8.89095C80.3039 8.89095 79.3042 9.75909 79.3042 10.8967C79.3042 11.6151 79.7452 12.124 80.4509 12.3934C81.5095 12.7826 83.1267 12.5731 84.6852 13.052C86.7729 13.6807 88.0667 15.3272 88.0667 17.5723C88.0667 20.7455 85.6849 23.0506 82.0682 23.0506C78.4514 23.0506 75.952 20.8653 75.952 17.6921H79.1571C79.1571 19.0093 80.4215 19.9073 82.0976 19.9073C83.7737 19.9073 84.8616 18.9793 84.8616 17.752C84.8616 16.9138 84.3323 16.4048 83.6854 16.1654C82.6269 15.7762 80.892 15.8959 79.4218 15.4768C77.2458 14.8482 76.0697 13.1718 76.0697 11.0463C76.0697 7.99287 78.4514 5.77762 81.9212 5.77762C85.3909 5.77762 87.8021 7.87313 87.8021 10.9266H84.5676C84.5676 9.66928 83.4796 8.89095 81.8918 8.89095Z" fill="white"/>
    <path d="M91.4189 6.01709H94.6534V22.7812H91.4189V6.01709Z" fill="white"/>
    <path d="M104.004 8.89095C102.416 8.89095 101.416 9.75909 101.416 10.8967C101.416 11.6151 101.857 12.124 102.563 12.3934C103.622 12.7826 105.239 12.5731 106.797 13.052C108.885 13.6807 110.179 15.3272 110.179 17.5723C110.179 20.7455 107.797 23.0506 104.18 23.0506C100.564 23.0506 98.0643 20.8653 98.0643 17.6921H101.269C101.269 19.0093 102.534 19.9073 104.21 19.9073C105.886 19.9073 106.974 18.9793 106.974 17.752C106.974 16.9138 106.445 16.4048 105.798 16.1654C104.739 15.7762 103.004 15.8959 101.534 15.4768C99.3581 14.8482 98.1819 13.1718 98.1819 11.0463C98.1819 7.99287 100.564 5.77762 104.033 5.77762C107.503 5.77762 109.914 7.87313 109.914 10.9266H106.68C106.68 9.66928 105.592 8.89095 104.004 8.89095Z" fill="white"/>
    <path d="M134.026 6.01709V22.7812H130.821L123.94 11.8246V22.7812H120.735V6.01709H123.94L130.821 16.9736V6.01709H134.026Z" fill="white"/>
    <path d="M138.172 6.01709H150.963V9.22023H141.377V12.7227H146.699V15.9259H141.377V19.5182H150.963V22.7213H138.172V6.01709Z" fill="white"/>
    <path d="M158.226 9.22023H153.433V6.01709H166.224V9.22023H161.431V22.7812H158.197L158.226 9.22023Z" fill="white"/>
    <path d="M189.571 6.01709L184.867 22.7812H181.456L178.809 13.5011L176.192 22.7812H172.811L168.077 6.01709H171.399L174.546 17.722L177.692 6.01709H179.956L183.073 17.6023L186.307 6.01709H189.571Z" fill="white"/>
    <path d="M199.598 5.74771C204.538 5.74771 208.096 9.51963 208.096 14.3692C208.096 19.2188 204.538 22.9908 199.598 22.9908C194.658 22.9908 191.13 19.2188 191.13 14.3692C191.13 9.51963 194.658 5.74771 199.598 5.74771ZM199.598 19.7876C202.686 19.7876 204.862 17.4526 204.862 14.3992C204.862 11.3457 202.686 9.01072 199.598 9.01072C196.511 9.01072 194.335 11.3457 194.335 14.3992C194.335 17.4526 196.54 19.7876 199.598 19.7876Z" fill="white"/>
    <path d="M217.77 17.7819H214.742V22.7513H211.507V5.98718H218.505C221.975 5.98718 224.445 8.47186 224.445 11.8845C224.445 14.2794 223.21 16.2552 221.24 17.1533L224.769 22.7213H220.975L217.77 17.7819ZM214.742 14.6087H218.564C220.152 14.6087 221.24 13.4711 221.24 11.9145C221.24 10.3578 220.152 9.22026 218.594 9.22026H214.771L214.742 14.6087Z" fill="white"/>
    <path d="M236.942 22.7812L231.267 15.1775V22.7812H228.033V6.01709H231.267V13.5609L236.942 6.01709H240.912L234.59 14.3093L241 22.7812H236.942Z" fill="white"/>
    <path fill-rule="evenodd" clip-rule="evenodd" d="M26.8464 6.01711C24.5822 3.08339 21.2889 1.22737 17.6133 1.22737C10.5268 1.22737 5.35164 7.933 5.35164 15.2074C5.35164 20.2666 8.64495 24.0684 12.3205 24.0684C12.6734 24.0684 12.9968 24.0385 13.3497 23.9786C10.8797 22.1226 9.29185 18.7698 9.29185 15.1775C9.29185 9.4298 13.1144 4.96935 17.6133 4.96935C22.5239 4.96935 25.9348 9.93871 25.9348 15.1775C25.9348 19.0691 24.5528 22.9309 22.1711 25.7748C20.0833 28.2594 17.3781 29.8461 14.4082 30.325C14.4082 30.325 14.6435 30.355 14.9669 30.355C23.2002 30.355 29.8751 23.5595 29.8751 15.1775C29.8751 11.7349 28.7577 8.56166 26.8464 6.01711ZM24.5822 15.1775C24.5822 10.1183 21.2889 6.31647 17.6133 6.31647C17.2605 6.31647 16.937 6.3464 16.5842 6.40627C19.0542 8.23236 20.6126 11.5552 20.6126 15.1775C20.6126 20.9252 16.79 25.3856 12.2911 25.3856C7.38055 25.3856 3.96962 20.4163 3.96962 15.1775C3.96962 11.2858 5.35163 7.42409 7.73341 4.58019C9.82113 2.09551 12.5264 0.50891 15.4962 0.0299359C15.4962 0.0299359 15.261 0 14.9081 0C6.67484 0 0 6.79544 0 15.1775C0 18.6201 1.11737 21.7933 3.02867 24.3379C5.29283 27.2716 8.61555 29.1276 12.2617 29.1276C19.407 29.1575 24.5822 22.4519 24.5822 15.1775Z" fill="white"/>
</svg>
