<svg width="31" height="31" viewBox="0 0 31 31" fill="none" xmlns="http://www.w3.org/2000/svg">
<path fill-rule="evenodd" clip-rule="evenodd" d="M26.8464 6.33962C24.5822 3.4059 21.2889 1.54988 17.6133 1.54988C10.5268 1.54988 5.35164 8.25551 5.35164 15.5299C5.35164 20.5891 8.64495 24.3909 12.3205 24.3909C12.6734 24.3909 12.9968 24.361 13.3497 24.3011C10.8797 22.4451 9.29185 19.0923 9.29185 15.5C9.29185 9.75231 13.1144 5.29186 17.6133 5.29186C22.5239 5.29186 25.9348 10.2612 25.9348 15.5C25.9348 19.3917 24.5528 23.2534 22.1711 26.0973C20.0833 28.582 17.3781 30.1686 14.4082 30.6475C14.4082 30.6475 14.6435 30.6775 14.9669 30.6775C23.2002 30.6775 29.8751 23.882 29.8751 15.5C29.8751 12.0574 28.7577 8.88416 26.8464 6.33962ZM24.5822 15.5C24.5822 10.4408 21.2889 6.63898 17.6133 6.63898C17.2605 6.63898 16.937 6.66891 16.5842 6.72878C19.0542 8.55487 20.6126 11.8778 20.6126 15.5C20.6126 21.2477 16.79 25.7081 12.2911 25.7081C7.38055 25.7081 3.96962 20.7388 3.96962 15.5C3.96962 11.6083 5.35163 7.7466 7.73341 4.9027C9.82113 2.41802 12.5264 0.831419 15.4962 0.352446C15.4962 0.352446 15.261 0.32251 14.9081 0.32251C6.67484 0.32251 0 7.11795 0 15.5C0 18.9426 1.11737 22.1158 3.02867 24.6604C5.29283 27.5941 8.61555 29.4501 12.2617 29.4501C19.407 29.48 24.5822 22.7744 24.5822 15.5Z" fill="#3333C9"/>
</svg>
