<svg width="241" height="31" viewBox="0 0 241 31" fill="none" xmlns="http://www.w3.org/2000/svg">
<path d="M50.0172 6.07022C54.9572 6.07022 58.5151 9.84214 58.5151 14.6917C58.5151 19.5414 54.9572 23.3133 50.0172 23.3133C45.0772 23.3133 41.5487 19.5414 41.5487 14.6917C41.5487 9.84214 45.0772 6.07022 50.0172 6.07022ZM50.0172 20.1101C53.1047 20.1101 55.2806 17.7751 55.2806 14.7217C55.2806 11.6682 53.1047 9.33323 50.0172 9.33323C46.9297 9.33323 44.7538 11.6682 44.7538 14.7217C44.7538 17.7751 46.9591 20.1101 50.0172 20.1101Z" fill="#3333C9"/>
<path d="M69.9241 20.7088H63.8374L63.0728 23.1037H59.8677L65.2782 6.3396H68.6009L73.9819 23.1037H70.718L69.9241 20.7088ZM68.9243 17.5356L66.8954 11.1892L64.8665 17.5356H68.9243Z" fill="#3333C9"/>
<path d="M81.8918 9.21346C80.3039 9.21346 79.3042 10.0816 79.3042 11.2192C79.3042 11.9376 79.7452 12.4465 80.4509 12.716C81.5095 13.1051 83.1267 12.8956 84.6852 13.3745C86.7729 14.0032 88.0667 15.6497 88.0667 17.8949C88.0667 21.0681 85.6849 23.3731 82.0682 23.3731C78.4514 23.3731 75.952 21.1878 75.952 18.0146H79.1571C79.1571 19.3318 80.4215 20.2299 82.0976 20.2299C83.7737 20.2299 84.8616 19.3018 84.8616 18.0745C84.8616 17.2363 84.3323 16.7274 83.6854 16.4879C82.6269 16.0987 80.892 16.2184 79.4218 15.7993C77.2458 15.1707 76.0697 13.4943 76.0697 11.3688C76.0697 8.31538 78.4514 6.10013 81.9212 6.10013C85.3909 6.10013 87.8021 8.19564 87.8021 11.2491H84.5676C84.5676 9.99179 83.4796 9.21346 81.8918 9.21346Z" fill="#3333C9"/>
<path d="M91.4189 6.3396H94.6534V23.1037H91.4189V6.3396Z" fill="#3333C9"/>
<path d="M104.004 9.21346C102.416 9.21346 101.416 10.0816 101.416 11.2192C101.416 11.9376 101.857 12.4465 102.563 12.716C103.622 13.1051 105.239 12.8956 106.797 13.3745C108.885 14.0032 110.179 15.6497 110.179 17.8949C110.179 21.0681 107.797 23.3731 104.18 23.3731C100.564 23.3731 98.0643 21.1878 98.0643 18.0146H101.269C101.269 19.3318 102.534 20.2299 104.21 20.2299C105.886 20.2299 106.974 19.3018 106.974 18.0745C106.974 17.2363 106.445 16.7274 105.798 16.4879C104.739 16.0987 103.004 16.2184 101.534 15.7993C99.3581 15.1707 98.1819 13.4943 98.1819 11.3688C98.1819 8.31538 100.564 6.10013 104.033 6.10013C107.503 6.10013 109.914 8.19564 109.914 11.2491H106.68C106.68 9.99179 105.592 9.21346 104.004 9.21346Z" fill="#3333C9"/>
<path d="M134.026 6.3396V23.1037H130.821L123.94 12.1472V23.1037H120.735V6.3396H123.94L130.821 17.2961V6.3396H134.026Z" fill="#3333C9"/>
<path d="M138.172 6.3396H150.963V9.54274H141.377V13.0452H146.699V16.2484H141.377V19.8407H150.963V23.0438H138.172V6.3396Z" fill="#3333C9"/>
<path d="M158.226 9.54274H153.433V6.3396H166.224V9.54274H161.431V23.1037H158.197L158.226 9.54274Z" fill="#3333C9"/>
<path d="M189.571 6.3396L184.867 23.1037H181.456L178.809 13.8236L176.192 23.1037H172.811L168.077 6.3396H171.399L174.546 18.0445L177.692 6.3396H179.956L183.073 17.9248L186.307 6.3396H189.571Z" fill="#3333C9"/>
<path d="M199.598 6.07022C204.538 6.07022 208.096 9.84214 208.096 14.6917C208.096 19.5414 204.538 23.3133 199.598 23.3133C194.658 23.3133 191.13 19.5414 191.13 14.6917C191.13 9.84214 194.658 6.07022 199.598 6.07022ZM199.598 20.1101C202.686 20.1101 204.862 17.7751 204.862 14.7217C204.862 11.6682 202.686 9.33323 199.598 9.33323C196.511 9.33323 194.335 11.6682 194.335 14.7217C194.335 17.7751 196.54 20.1101 199.598 20.1101Z" fill="#3333C9"/>
<path d="M217.77 18.1044H214.742V23.0738H211.507V6.30969H218.505C221.975 6.30969 224.445 8.79437 224.445 12.2071C224.445 14.6019 223.21 16.5777 221.24 17.4758L224.769 23.0438H220.975L217.77 18.1044ZM214.742 14.9312H218.564C220.152 14.9312 221.24 13.7937 221.24 12.237C221.24 10.6803 220.152 9.54277 218.594 9.54277H214.771L214.742 14.9312Z" fill="#3333C9"/>
<path d="M236.942 23.1037L231.267 15.5V23.1037H228.033V6.3396H231.267V13.8834L236.942 6.3396H240.912L234.59 14.6318L241 23.1037H236.942Z" fill="#3333C9"/>
<path fill-rule="evenodd" clip-rule="evenodd" d="M26.8464 6.33962C24.5822 3.4059 21.2889 1.54988 17.6133 1.54988C10.5268 1.54988 5.35164 8.25551 5.35164 15.5299C5.35164 20.5891 8.64495 24.3909 12.3205 24.3909C12.6734 24.3909 12.9968 24.361 13.3497 24.3011C10.8797 22.4451 9.29185 19.0923 9.29185 15.5C9.29185 9.75231 13.1144 5.29186 17.6133 5.29186C22.5239 5.29186 25.9348 10.2612 25.9348 15.5C25.9348 19.3917 24.5528 23.2534 22.1711 26.0973C20.0833 28.582 17.3781 30.1686 14.4082 30.6475C14.4082 30.6475 14.6435 30.6775 14.9669 30.6775C23.2002 30.6775 29.8751 23.882 29.8751 15.5C29.8751 12.0574 28.7577 8.88416 26.8464 6.33962ZM24.5822 15.5C24.5822 10.4408 21.2889 6.63898 17.6133 6.63898C17.2605 6.63898 16.937 6.66891 16.5842 6.72878C19.0542 8.55487 20.6126 11.8778 20.6126 15.5C20.6126 21.2477 16.79 25.7081 12.2911 25.7081C7.38055 25.7081 3.96962 20.7388 3.96962 15.5C3.96962 11.6083 5.35163 7.7466 7.73341 4.9027C9.82113 2.41802 12.5264 0.831419 15.4962 0.352446C15.4962 0.352446 15.261 0.32251 14.9081 0.32251C6.67484 0.32251 0 7.11795 0 15.5C0 18.9426 1.11737 22.1158 3.02867 24.6604C5.29283 27.5941 8.61555 29.4501 12.2617 29.4501C19.407 29.48 24.5822 22.7744 24.5822 15.5Z" fill="#3333C9"/>
</svg>
